<?xml version="1.0" encoding="UTF-8"?>
<svg id="Calque_1" xmlns="http://www.w3.org/2000/svg" viewBox="0 0 689.2 115.57">
  <defs>
    <style>
      .cls-1 {
        fill: #1d1d1b;
      }
    </style>
  </defs>
  <path class="cls-1" d="M133.97,28.39c-3.63-2.03-7.94-3.04-12.93-3.04s-9.44,1.27-13.12,3.8c-2.54,1.75-4.67,4.05-6.4,6.87V1.52h-11.91v88.71h11.91v-32.95c0-6.59,1.44-11.7,4.31-15.33,2.87-3.63,6.93-5.45,12.17-5.45,2.96.09,5.6.72,7.92,1.9,2.32,1.18,4.16,3.28,5.51,6.27,1.35,3,2.03,7.37,2.03,13.12v32.44h11.91v-35.61c.08-6.93-.89-12.52-2.91-16.79-2.03-4.27-4.86-7.41-8.49-9.44Z"/>
  <path class="cls-1" d="M172.62,38.24v-11.38h-12.04v63.36h12.04v-34.47c0-4.39,1.08-7.88,3.23-10.45,2.15-2.58,4.94-4.44,8.36-5.58,3.42-1.14,7.03-1.71,10.83-1.71v-11.41c-4.56,0-8.91,1.06-13.05,3.17-3.75,1.92-6.88,4.74-9.38,8.46Z"/>
  <path class="cls-1" d="M249.8,29.59c-4.82-2.83-10.35-4.25-16.6-4.25s-11.79,1.42-16.6,4.25c-4.82,2.83-8.58,6.74-11.28,11.72-2.7,4.99-4.06,10.73-4.06,17.23s1.37,12.25,4.12,17.23c2.74,4.99,6.53,8.89,11.34,11.72,4.82,2.83,10.39,4.25,16.73,4.25s11.64-1.42,16.41-4.25c4.77-2.83,8.51-6.74,11.21-11.72,2.7-4.98,4.05-10.73,4.05-17.23s-1.35-12.25-4.05-17.23c-2.7-4.98-6.46-8.89-11.28-11.72ZM250.5,70.08c-1.65,3.29-3.95,5.89-6.91,7.79-2.96,1.9-6.34,2.85-10.14,2.85s-7.35-.95-10.39-2.85c-3.04-1.9-5.41-4.5-7.1-7.79-1.69-3.29-2.53-7.14-2.53-11.53s.84-8.24,2.53-11.53c1.69-3.29,4.01-5.89,6.97-7.79,2.96-1.9,6.38-2.85,10.26-2.85s7.22.95,10.26,2.85c3.04,1.9,5.39,4.5,7.03,7.79,1.65,3.29,2.47,7.14,2.47,11.53s-.82,8.24-2.47,11.53Z"/>
  <path class="cls-1" d="M322.73,28.39c-3.67-2.03-8.01-3.04-12.99-3.04s-9.44,1.27-13.12,3.8c-2.56,1.76-4.69,4.08-6.43,6.93l-.6-9.21h-11.28v63.36h12.04v-32.95c0-6.59,1.44-11.7,4.31-15.33,2.87-3.63,6.88-5.45,12.04-5.45,3.04.09,5.72.72,8.05,1.9,2.32,1.18,4.14,3.28,5.45,6.27,1.31,3,1.96,7.37,1.96,13.12v32.44h12.04v-35.61c0-6.93-.99-12.52-2.98-16.79-1.99-4.27-4.82-7.41-8.49-9.44Z"/>
  <path class="cls-1" d="M394.39,29.59c-4.82-2.83-10.35-4.25-16.6-4.25s-11.79,1.42-16.6,4.25c-4.82,2.83-8.58,6.74-11.28,11.72-2.7,4.99-4.05,10.73-4.05,17.23s1.37,12.25,4.12,17.23c2.74,4.99,6.53,8.89,11.34,11.72,4.82,2.83,10.39,4.25,16.73,4.25s11.64-1.42,16.41-4.25c4.77-2.83,8.51-6.74,11.21-11.72,2.7-4.98,4.06-10.73,4.06-17.23s-1.35-12.25-4.06-17.23c-2.7-4.98-6.46-8.89-11.28-11.72ZM395.09,70.08c-1.65,3.29-3.95,5.89-6.91,7.79-2.96,1.9-6.34,2.85-10.14,2.85s-7.35-.95-10.39-2.85c-3.04-1.9-5.41-4.5-7.1-7.79-1.69-3.29-2.53-7.14-2.53-11.53s.84-8.24,2.53-11.53c1.69-3.29,4.01-5.89,6.97-7.79,2.96-1.9,6.38-2.85,10.26-2.85s7.22.95,10.26,2.85c3.04,1.9,5.39,4.5,7.03,7.79,1.65,3.29,2.47,7.14,2.47,11.53s-.82,8.24-2.47,11.53Z"/>
  <path class="cls-1" d="M554.37,29.59c-4.82-2.83-10.35-4.25-16.6-4.25s-11.78,1.42-16.6,4.25c-4.82,2.83-8.57,6.74-11.28,11.72-2.7,4.99-4.05,10.73-4.05,17.23s1.37,12.25,4.12,17.23c2.74,4.99,6.53,8.89,11.34,11.72,4.82,2.83,10.39,4.25,16.73,4.25s11.64-1.42,16.41-4.25c4.77-2.83,8.51-6.74,11.22-11.72,2.7-4.98,4.05-10.73,4.05-17.23s-1.35-12.25-4.05-17.23c-2.7-4.98-6.46-8.89-11.28-11.72ZM555.06,70.08c-1.65,3.29-3.95,5.89-6.91,7.79-2.96,1.9-6.34,2.85-10.14,2.85s-7.35-.95-10.39-2.85c-3.04-1.9-5.41-4.5-7.1-7.79-1.69-3.29-2.54-7.14-2.54-11.53s.84-8.24,2.54-11.53c1.69-3.29,4.01-5.89,6.97-7.79,2.96-1.9,6.38-2.85,10.26-2.85s7.22.95,10.26,2.85c3.04,1.9,5.39,4.5,7.03,7.79,1.65,3.29,2.47,7.14,2.47,11.53s-.82,8.24-2.47,11.53Z"/>
  <path class="cls-1" d="M594.92,38.24v-11.38h-12.04v63.36h12.04v-34.47c0-4.39,1.08-7.88,3.23-10.45,2.15-2.58,4.94-4.44,8.36-5.58,3.42-1.14,7.03-1.71,10.84-1.71v-11.41c-4.56,0-8.91,1.06-13.05,3.17-3.75,1.92-6.88,4.74-9.38,8.46Z"/>
  <path class="cls-1" d="M685.59,41.12c-2.41-4.94-5.77-8.81-10.07-11.6-4.31-2.79-9.3-4.18-14.95-4.18-5.32,0-9.95,1.39-13.88,4.18-2.8,1.98-5.12,4.52-7,7.6l-.67-10.26h-11.28v88.71h12.04v-35.49c1.86,3.03,4.16,5.53,6.91,7.48,3.93,2.79,8.55,4.18,13.88,4.18,5.66,0,10.64-1.39,14.95-4.18,4.31-2.79,7.67-6.67,10.07-11.66,2.41-4.98,3.61-10.77,3.61-17.36s-1.2-12.48-3.61-17.42ZM674.44,70.14c-1.65,3.34-3.91,5.96-6.78,7.86-2.87,1.9-6.21,2.85-10.01,2.85-3.47,0-6.55-.95-9.25-2.85-2.7-1.9-4.82-4.52-6.34-7.86-1.52-3.34-2.28-7.2-2.28-11.6s.76-8.15,2.28-11.53c1.52-3.38,3.65-6.02,6.4-7.92,2.74-1.9,5.85-2.85,9.31-2.85,3.8,0,7.14.95,10.01,2.85,2.87,1.9,5.11,4.52,6.72,7.86,1.6,3.34,2.41,7.2,2.41,11.6s-.82,8.26-2.47,11.6Z"/>
  <path class="cls-1" d="M57.55,34.17c-.64,0-1.28-.24-1.77-.73-.98-.98-.98-2.56,0-3.54l4.73-4.73c.98-.98,2.56-.98,3.54,0,.98.98.98,2.56,0,3.54l-4.73,4.73c-.49.49-1.13.73-1.77.73Z"/>
  <path class="cls-1" d="M63.92,62.92l-18.47-18.47c-.64-.69-1.22-1.17-2.11-1.17-.02,0-.03,0-.05,0-.66-.01-1.32.23-1.82.73-.65.65-.67,1.23-.64,2.41v28.02c0,1.38,1.12,2.5,2.5,2.5s2.5-1.12,2.5-2.5v-22.53l14.54,14.54c.49.49,1.13.73,1.77.73s1.28-.24,1.77-.73c.98-.98.98-2.56,0-3.54Z"/>
  <path class="cls-1" d="M43.34,26.94c-1.38,0-2.5-1.12-2.5-2.5v-7.14c0-1.38,1.12-2.5,2.5-2.5s2.5,1.12,2.5,2.5v7.14c0,1.38-1.12,2.5-2.5,2.5Z"/>
  <path class="cls-1" d="M24.44,48.37h-5.88c-1.38,0-2.5-1.12-2.5-2.5s1.12-2.5,2.5-2.5h5.88c1.38,0,2.5,1.12,2.5,2.5s-1.12,2.5-2.5,2.5Z"/>
  <path class="cls-1" d="M24.41,67.31c-.64,0-1.28-.24-1.77-.73-.98-.98-.98-2.56,0-3.54l4.89-4.89c.98-.98,2.56-.98,3.54,0,.98.98.98,2.56,0,3.54l-4.89,4.89c-.49.49-1.13.73-1.77.73Z"/>
  <path class="cls-1" d="M29.13,34.17c-.64,0-1.28-.24-1.77-.73l-4.98-4.98c-.98-.98-.98-2.56,0-3.54.98-.98,2.56-.98,3.54,0l4.98,4.98c.98.98.98,2.56,0,3.54-.49.49-1.13.73-1.77.73Z"/>
  <path d="M64.06,71.66c-2.75,2.75-5.85,4.9-9.31,6.46-3.47,1.56-7.14,2.34-11.03,2.34-6,0-11.34-1.46-16.03-4.37-4.69-2.91-8.36-6.99-11.03-12.23-2.66-5.24-3.99-11.23-3.99-17.99s1.31-12.71,3.93-17.87c2.62-5.15,6.25-9.21,10.9-12.17,4.65-2.96,9.93-4.44,15.84-4.44,3.8,0,7.45.72,10.96,2.15,3.5,1.44,6.65,3.42,9.44,5.96,1.68,1.53,3.12,3.25,4.37,5.12l8.73-8.73c-1.32-1.66-2.79-3.22-4.43-4.68-3.93-3.5-8.39-6.25-13.37-8.24-4.99-1.98-10.22-2.98-15.71-2.98-8.45,0-15.93,1.96-22.43,5.89-6.51,3.93-11.62,9.34-15.33,16.22C1.86,29,0,36.92,0,45.87s1.86,16.88,5.58,23.76c3.72,6.89,8.87,12.29,15.46,16.22,6.59,3.93,14.11,5.89,22.56,5.89,5.58,0,10.88-1.04,15.9-3.1,5.03-2.07,9.48-4.96,13.37-8.68,1.4-1.34,2.68-2.76,3.86-4.24l-8.76-8.76c-1.16,1.68-2.45,3.25-3.9,4.7Z"/>
  <path d="M484.05,71.66c-2.75,2.75-5.85,4.9-9.31,6.46-3.47,1.56-7.14,2.34-11.03,2.34-6,0-11.34-1.46-16.03-4.37-4.69-2.91-8.36-6.99-11.03-12.23-2.66-5.24-3.99-11.23-3.99-17.99s1.31-12.71,3.93-17.87c2.62-5.15,6.25-9.21,10.9-12.17,4.65-2.96,9.93-4.44,15.84-4.44,3.8,0,7.45.72,10.96,2.15,3.5,1.44,6.65,3.42,9.44,5.96,1.68,1.53,3.12,3.25,4.37,5.12l8.73-8.73c-1.32-1.66-2.79-3.22-4.43-4.68-3.93-3.5-8.39-6.25-13.37-8.24C474.05.99,468.82,0,463.33,0c-8.45,0-15.93,1.96-22.43,5.89-6.51,3.93-11.62,9.34-15.33,16.22-3.72,6.89-5.58,14.81-5.58,23.76s1.86,16.88,5.58,23.76c3.72,6.89,8.87,12.29,15.46,16.22,6.59,3.93,14.11,5.89,22.56,5.89,5.58,0,10.88-1.04,15.9-3.1,5.03-2.07,9.48-4.96,13.37-8.68,1.4-1.34,2.68-2.76,3.86-4.24l-8.76-8.76c-1.16,1.68-2.45,3.25-3.9,4.7Z"/>
</svg>